<svg xmlns="http://www.w3.org/2000/svg" xml:space="preserve" width="262.66202" height="148.97563" viewBox="0 0 262.66202 148.97563"><path d="M106.448 42.496c7.293 0 13.198-5.71 13.198-12.756 0-7.044-5.906-12.755-13.198-12.755-7.288 0-13.198 5.71-13.198 12.755 0 7.047 5.91 12.756 13.198 12.756" style="fill:#e60013;fill-opacity:1;fill-rule:nonzero;stroke:none;stroke-width:3.05854"/><path d="M95.062 111.889c-1.03.896-2.926 1.565-5.7 2.015v3.649h37.6v-3.65c-2.826-.55-4.749-1.293-5.777-2.235q-1.545-1.412-1.544-6.407V47.32h-30.28v3.725c3.184.547 5.32 1.376 6.396 2.496 1.076 1.114 1.617 3.214 1.617 6.288v44.833q0 5.212-2.312 7.226" style="fill:#1d2088;fill-opacity:1;fill-rule:nonzero;stroke:none;stroke-width:3.05854"/><path d="m155.597 134.974-.239-87.731-30.429.076v3.725c3.29.447 5.508 1.227 6.664 2.347q1.735 1.674 1.735 6.44v76.633c0 3.226-.615 5.42-1.851 6.59-1.227 1.166-3.544 1.924-6.93 2.274v3.648h43.146v-3.128c-4.163-.248-7.125-1.118-8.9-2.607-1.768-1.49-2.839-4.245-3.196-8.267" style="fill:#1d2088;fill-opacity:1;fill-rule:nonzero;stroke:none;stroke-width:3.05854"/><path d="M262.66 27.964c0-4.52-2.165-8.155-6.507-10.91q-6.516-4.133-15.91-4.134c-11.768 0-19.833 4.272-24.197 12.808-2.312 4.57-3.463 10.405-3.463 17.497v1.019C199.997 18.596 162.877 0 119.008 0c-39.78 0-74.003 15.295-89.42 37.275V14.479H0v3.725q4.393.968 6.01 2.456c1.073.995 1.618 3.104 1.618 6.328v77.674c0 3.383-.576 5.6-1.735 6.671-1.153 1.068-3.122 1.924-5.893 2.57v3.649h37.6v-3.65c-3.599-.449-5.832-1.241-6.703-2.385q-1.31-1.713-1.31-6.853V89.47c10.632 15.196 30.21 27.219 54.449 33.192v-17.92c-31.004-7.006-53.25-26.068-53.25-48.49 0-28.364 35.593-51.361 79.504-51.361 43.91 0 79.507 22.997 79.507 51.36 0 14.453-13.987 28.697-28.853 38.031v28.347c23.804-8.977 42.969-26.843 51.64-44.995v27.558c0 3.63-.713 6.006-2.123 7.15q-2.124 1.716-6.974 2.084v3.654h43.84v-3.654q-8.082-.52-10.44-2.306c-1.566-1.194-2.349-4.423-2.349-9.678V55.595h13.71v-6.707H234.54V29.155q0-7.15 2.08-9.311 2.078-2.16 5.936-2.16a8.6 8.6 0 0 1 3.007.523q1.38.524 1.38 2.382.001.6-1.732 3.39c-1.156 1.862-1.733 3.64-1.733 5.32 0 2.237.901 4.154 2.7 5.742 1.792 1.584 3.949 2.38 6.474 2.38 3.026 0 5.458-.87 7.278-2.606q2.733-2.607 2.733-6.851m-50.11 27.463h-10.51v-6.702h10.51z" style="fill:#1d2088;fill-opacity:1;fill-rule:nonzero;stroke:none;stroke-width:3.05854"/></svg>