<svg xmlns="http://www.w3.org/2000/svg" xml:space="preserve" width="324.832" height="83.130928" viewBox="0 0 324.832 83.130926"><path d="M401.177 474.577v-58.43h18.777v58.43zM248.75 474.577v-12.299h21.956v-46.132h18.829v46.132h21.958v12.299zM237.64 462.278v12.299h-61.31v-47.252c0-6.165 4.032-11.163 9.005-11.163h52.305v12.298h-42.48v10.759h42.48v12.301h-42.48v10.758z" style="fill:#1c63ab;fill-opacity:1;fill-rule:nonzero;stroke:none" transform="matrix(1.33333 0 0 -1.33333 -235.107 632.769)"/><path d="M368.112 443.395H345.95l25.414-31.166h22.164z" style="fill:#f1471d;fill-opacity:1;fill-rule:nonzero;stroke:none" transform="matrix(1.33333 0 0 -1.33333 -235.107 632.769)"/><path d="M377.94 474.577h-57.011v-58.43h18.83v46.131h28.356v-18.881h18.833v20.02c0 6.163-4.031 11.16-9.009 11.16z" style="fill:#f1471d;fill-opacity:1;fill-rule:nonzero;stroke:none" transform="matrix(1.33333 0 0 -1.33333 -235.107 632.769)"/></svg>