<svg xmlns="http://www.w3.org/2000/svg" width="291.04797mm" height="185.20833mm" viewBox="0 0 291.04797 185.20833"><path d="M0 0a15.87 15.87 0 0 1-9.113-2.87A15.887 15.887 0 0 1-18.229 0c-8.811 0-15.953-7.142-15.953-15.953s7.142-15.951 15.953-15.951c3.39 0 6.53 1.064 9.116 2.869A15.855 15.855 0 0 1 0-31.904c8.813 0 15.954 7.14 15.954 15.951S8.813 0 0 0" style="fill:#fff;fill-opacity:1;fill-rule:nonzero;stroke:none" transform="matrix(5.80516 0 0 -5.80516 198.432 0)"/><path d="m0 0 4.076 2.646 9.692 6.293c-.817.25-1.663.435-2.527.55l-7.66-6.156L0 .457l-6.674-4.494-15.965-10.75c.359-.57.751-1.117 1.176-1.635L-6.797-5.201 0 0" style="fill:#ed1c24;fill-opacity:1;fill-rule:nonzero;stroke:none" transform="matrix(5.80516 0 0 -5.80516 145.528 55.909)"/><path d="M0 0c-.261.631-.56 1.242-.892 1.829l-16.934-12.897-6.04-4.597-2.363-1.489-7.681-4.848a16.027 16.027 0 0 1 3.811.232l4.457 4.038 1.776 1.609 5.543 3.744L0 0" style="fill:#ed1c24;fill-opacity:1;fill-rule:nonzero;stroke:none" transform="matrix(5.80516 0 0 -5.80516 284.075 57.327)"/><path d="m0 0 6.672 4.492 15.965 10.747c-.356.57-.748 1.117-1.173 1.633L6.798 5.655 0 .457l-4.077-2.65-9.693-6.297a16.074 16.074 0 0 1 2.524-.547l7.662 6.157L0 0" style="fill:#ed1c24;fill-opacity:1;fill-rule:nonzero;stroke:none" transform="matrix(5.80516 0 0 -5.80516 145.528 131.934)"/><path d="m0 0 5.405 3.563 11.279 7.434c-.664.358-1.354.67-2.067.932L5.002 4.381 0 .454l-6.801-4.558-14.239-9.541c.452-.508.936-.986 1.446-1.432l12.897 9.924L0 0" style="fill:#ed1c24;fill-opacity:1;fill-rule:nonzero;stroke:none" transform="matrix(5.80516 0 0 -5.80516 145.528 74.91)"/><path d="m0 0 6.333 4.214 12.737 8.477c-.549.438-1.127.841-1.733 1.207L6.058 5.153 0 .456-6.335-3.76l-12.734-8.479c.548-.44 1.126-.844 1.731-1.207L-6.06-4.7 0 0" style="fill:#ed1c24;fill-opacity:1;fill-rule:nonzero;stroke:none" transform="matrix(5.80516 0 0 -5.80516 145.528 93.92)"/><path d="m0 0 6.803 4.555 14.235 9.536c-.45.508-.932.986-1.444 1.432L6.696 5.606 0 .457l-5.409-3.569-11.276-7.435a15.382 15.382 0 0 1 2.067-.936l9.613 7.551L0 0" style="fill:#ed1c24;fill-opacity:1;fill-rule:nonzero;stroke:none" transform="matrix(5.80516 0 0 -5.80516 145.528 112.903)"/><path d="M0 0c-8.811 0-15.952-7.143-15.952-15.952 0-1.876.323-3.673.918-5.347L8.955-2.752A15.878 15.878 0 0 1 0 0" style="fill:#ed1c24;fill-opacity:1;fill-rule:nonzero;stroke:none" transform="matrix(5.80516 0 0 -5.80516 92.607 0)"/><path d="m0 0 2.354 1.486 7.679 4.842a15.951 15.951 0 0 1-3.786-.231l-4.472-4.04L0 .452l-5.541-3.745-18.328-12.384c.262-.631.56-1.241.895-1.829L-6.037-4.599 0 0" style="fill:#ed1c24;fill-opacity:1;fill-rule:nonzero;stroke:none" transform="matrix(5.80516 0 0 -5.80516 145.528 36.898)"/><path d="m0 0-23.993-18.542a15.877 15.877 0 0 1 8.958-2.751c8.81 0 15.952 7.14 15.952 15.952C.917-3.468.593-1.669 0 0" style="fill:#ed1c24;fill-opacity:1;fill-rule:nonzero;stroke:none" transform="matrix(5.80516 0 0 -5.80516 285.725 61.598)"/><path d="m0 0-3.018-.001a1.761 1.761 0 0 0-1.767 1.753c0 .969.791 1.759 1.767 1.757L0 3.51v2.071h-3.188a3.87 3.87 0 0 1-3.2-1.675v1.675h-2.374V-2.07h2.374v1.677a3.87 3.87 0 0 1 3.2-1.676H0V0" style="fill:#ed1c24;fill-opacity:1;fill-rule:nonzero;stroke:none" transform="matrix(5.80516 0 0 -5.80516 114.835 103.152)"/><path d="M0 0c2.129 0 3.854 1.713 3.854 3.825S2.129 7.65 0 7.65h-4.788V-2.699h2.375v2.697L0 0m-.164 2.064-2.244-.001V5.58h2.242a1.774 1.774 0 0 0 1.768-1.765c0-.932-.79-1.75-1.766-1.751" style="fill:#ed1c24;fill-opacity:1;fill-rule:nonzero;stroke:none" transform="matrix(5.80516 0 0 -5.80516 148.271 115.162)"/><path d="M0 0c.2 0 .363-.162.363-.361A.362.362 0 0 0 0-.721h-6.069v-2.068l6.36-.002A2.44 2.44 0 0 1 2.739-.36 2.44 2.44 0 0 1 .291 2.07h-3.669a.36.36 0 1 0 0 .721h6.071v2.07h-6.36a2.438 2.438 0 0 1-2.448-2.43A2.44 2.44 0 0 1-3.667 0H0" style="fill:#ed1c24;fill-opacity:1;fill-rule:nonzero;stroke:none" transform="matrix(5.80516 0 0 -5.80516 210.263 98.971)"/><path d="M0 0a.79.79 0 0 0-.562-.24h-1.272v1.574h1.272A.803.803 0 0 0 .234.541.781.781 0 0 0 0 0m-6.156-.235-3.019-.001a.792.792 0 0 0-.797.782.795.795 0 0 0 .796.786h.005l3.016.001V-.235zm19.352 1.568h.75v4.013H6.615a3.43 3.43 0 0 1-3.107-1.981A4.833 4.833 0 0 1-.396 5.346h-8.949a4.85 4.85 0 0 1-2.227-.537v.537h-4.317v-9.593h4.317v.538a4.862 4.862 0 0 1 2.227-.537h3.19v-2.699h4.316v2.698l1.443.001a4.838 4.838 0 0 1 3.638 1.65v-1.65l7.33-.001c1.884.003 3.418 1.517 3.42 3.401-.001.831-.3 1.59-.796 2.179" style="fill:#ed1c24;fill-opacity:1;fill-rule:nonzero;stroke:none" transform="matrix(5.80516 0 0 -5.80516 150.573 96.15)"/><path d="m0 0-3.018-.001a1.761 1.761 0 0 0-1.767 1.753c0 .969.791 1.759 1.767 1.757L0 3.51v2.071h-3.188a3.87 3.87 0 0 1-3.2-1.675v1.675h-2.374V-2.07h2.374v1.677a3.87 3.87 0 0 1 3.2-1.676H0V0" style="fill:#fff;fill-opacity:1;fill-rule:nonzero;stroke:none" transform="matrix(5.80516 0 0 -5.80516 114.835 103.152)"/><path d="M0 0c2.129 0 3.854 1.713 3.854 3.825S2.129 7.65 0 7.65h-4.788V-2.699h2.375v2.697L0 0m-.164 2.064-2.244-.001V5.58h2.242a1.774 1.774 0 0 0 1.768-1.765c0-.932-.79-1.75-1.766-1.751" style="fill:#fff;fill-opacity:1;fill-rule:nonzero;stroke:none" transform="matrix(5.80516 0 0 -5.80516 148.271 115.162)"/><path d="M0 0c.2 0 .363-.162.363-.361A.362.362 0 0 0 0-.721h-6.069v-2.068l6.36-.002A2.44 2.44 0 0 1 2.739-.36 2.44 2.44 0 0 1 .291 2.07h-3.669a.36.36 0 1 0 0 .721h6.071v2.07h-6.36a2.438 2.438 0 0 1-2.448-2.43A2.44 2.44 0 0 1-3.667 0H0" style="fill:#fff;fill-opacity:1;fill-rule:nonzero;stroke:none" transform="matrix(5.80516 0 0 -5.80516 210.263 98.971)"/></svg>