<svg xmlns="http://www.w3.org/2000/svg" width="354.87396pt" height="225pt" viewBox="0 0 354.87395 225"><path fill="#bcbec0" d="M180.08 3.239A72.532 72.532 0 0 0 166.444.553L115.08 42.73 11.09 112.89a70.444 70.444 0 0 0 5.583 7.796L117.902 43.5ZM205.025 16.296a74.138 74.138 0 0 0-9.611-6.515l-75.466 59.301-92.835 62.045a73.679 73.679 0 0 0 10.187 7l79.83-64.179zM214.32 25.14a75.574 75.574 0 0 0-7.585-7.435l-86.274 66.227-81.79 54.962a74.222 74.222 0 0 0 11.053 4.87l71.508-56.765ZM163.032.288a68.895 68.895 0 0 0-4.045-.104c-5.317 0-10.502.568-15.505 1.638l-27.375 25.041L5.395 101.72a75.483 75.483 0 0 0 4.543 9.263l105.41-81.044ZM73.8.183C33.044.183 0 33.216 0 73.983a73.865 73.865 0 0 0 4.273 24.789l110.314-86.296C102.907 4.71 88.882.183 73.799.183M193.755 8.87a75.24 75.24 0 0 0-10.81-4.713l-59.922 47.787-105.063 70.28a73.91 73.91 0 0 0 8.368 8.257l89.276-70.355ZM117.154 134.758a73.414 73.414 0 0 0 41.832 13.023c40.758 0 73.807-33.046 73.807-73.8 0-9.147-1.666-17.9-4.708-25.987zM227.33 46.07a74.043 74.043 0 0 0-4.973-9.93l-98.82 76.45-54.581 35.031c1.596.096 3.216.158 4.845.158a74.83 74.83 0 0 0 13.333-1.215l28.723-25.53zM221.658 34.988a74.76 74.76 0 0 0-6.126-8.439l-89.18 68.382-75.026 49.35a72.65 72.65 0 0 0 14.196 3.03l53.664-43.937Z" style="stroke-width:4.14463" transform="matrix(1.52442 0 0 1.52442 0 -.28)"/><path fill="#f5821f" d="M184.04 76.97h5.613V56.84h-5.612zM194.763 51.758h20.118v-5.612h-20.118ZM158.452 51.758h20.13v-5.612h-20.13ZM184.04 40.953h5.613V20.831h-5.612z" style="stroke-width:4.14463" transform="matrix(1.52442 0 0 1.52442 0 -.28)"/><path fill="#ed1c24" d="M45.896 109.712H33.789V51.758h12.107v23.57l22.107-23.57h15.67L60.02 75.478l25.026 34.234h-15.58L51.545 84.285l-5.65 5.81Z" style="stroke-width:4.14463" transform="matrix(1.52442 0 0 1.52442 0 -.28)"/><path fill="#ed1c24" d="M124.688 51.756h-11.31v20.582h-.158c-1.778-2.752-5.168-6.706-12.438-6.706-9.446 0-17.838 7.27-17.838 22.128 0 11.78 5.325 23.082 18.087 23.082 4.679 0 9.682-1.695 12.425-6.54h.166v5.408h11.066Zm-30.11 36.809c0-6.781 2.408-13.168 9.603-13.168 7.746 0 9.682 6.955 9.682 13.814 0 6.375-2.827 12.343-10.006 12.343-7.27 0-9.28-7.908-9.28-12.99M173.602 109.712H162.3V83.638c0-3.15-.166-8.476-7.349-8.476-5.007 0-8.886 3.382-8.886 9.94v24.61h-11.298V66.77h10.817v6.291h.166c1.53-2.586 4.762-7.431 12.915-7.431 8.397 0 14.937 4.932 14.937 14.378z" style="stroke-width:4.14463" transform="matrix(1.52442 0 0 1.52442 0 -.28)"/></svg>