<svg xmlns="http://www.w3.org/2000/svg" xml:space="preserve" width="1165.728" height="500" viewBox="0 0 1165.728 500"><defs><clipPath id="a" clipPathUnits="userSpaceOnUse"><path d="M0 5669.292h5669.292V0H0Z"/></clipPath><clipPath id="b" clipPathUnits="userSpaceOnUse"><path d="M2874.132 3395.384c-12.437 0-22.52-10.082-22.52-22.519v-132.094c0-12.439 10.083-22.521 22.52-22.521h67.378c24.938 0 45.151-20.214 45.151-45.151v-52.301c0-12.44 10.082-22.52 22.522-22.52h150.904c12.438 0 22.52 10.08 22.52 22.52v92.481c0 100.574-81.531 182.105-182.102 182.105z"/></clipPath><linearGradient id="c" x1="0" x2="1" y1="0" y2="0" gradientTransform="scale(309.01183 -309.01183) rotate(-45 -7.46 -16.213)" gradientUnits="userSpaceOnUse" spreadMethod="pad"><stop offset="0" style="stop-opacity:1;stop-color:#e77625"/><stop offset="0.635935" style="stop-opacity:1;stop-color:#e77625"/><stop offset="0.67880774" style="stop-opacity:1;stop-color:#e77625"/><stop offset="1" style="stop-opacity:1;stop-color:#f3b820"/></linearGradient></defs><g clip-path="url(#a)" transform="matrix(.36682 0 0 -.36682 -457.24 1289.478)"><path d="M0 0c18.493-27.72 58.396-59.09 90.651-70.6l2.578-.921 34.809 48.728-4.86 1.459C80.419-8.501 34.969 34.069 34.969 87.689v39.072H-36.17V86.919c0-48.851-35.95-97.212-89.457-120.337l-4.511-1.956 38.565-45.053 2.448 1.044C-50.969-63.035-16.506-28.188 0 0" style="fill:#b5b5b6;fill-opacity:1;fill-rule:nonzero;stroke:none" transform="translate(1376.653 2397.2)"/><path d="M0 0h-66.512v-136.321h263.013v53.49H0Z" style="fill:#b5b5b6;fill-opacity:1;fill-rule:nonzero;stroke:none" transform="translate(1393.755 2312.84)"/><path d="M1582.692 2536.674h-66.945v-258.827h66.945z" style="fill:#b5b5b6;fill-opacity:1;fill-rule:nonzero;stroke:none"/><path d="M0 0c0-16.953-19.659-28.348-48.921-28.348-30.433 0-49.342 10.861-49.342 28.348 0 16.952 19.831 28.348 49.342 28.348C-20.12 28.348 0 16.687 0 0m-48.921 79.526c-57.573 0-115.854-27.313-115.854-79.526 0-51.45 58.281-78.364 115.854-78.364C8.659-78.364 66.943-51.45 66.943 0c0 46.825-47.641 79.526-115.864 79.526" style="fill:#b5b5b6;fill-opacity:1;fill-rule:nonzero;stroke:none" transform="translate(1837.067 2230.613)"/><path d="M0 0v-12.176h-44.459V.106C-26.435-2.063-11.773-1.602 0 0m-71.773 79.745c0 18.508 20.292 31.432 49.334 31.432 28.584 0 49.337-13.218 49.337-31.432 0-18.212-20.753-31.43-49.337-31.43-29.503 0-49.334 12.635-49.334 31.43m137.854-54.58c17.89 14.043 27.33 32.876 27.33 54.58 0 48.64-47.635 82.603-115.85 82.603-56.165 0-115.854-28.951-115.854-82.603 0-22.34 9.584-41.443 27.742-55.365v-36.556h-75.635v-53.097h327.494v53.097H66.081Z" style="fill:#b5b5b6;fill-opacity:1;fill-rule:nonzero;stroke:none" transform="translate(1810.169 2375.482)"/><path d="M2069.282 2410.963h117.172v-40.129h-117.172zm93.32-92.844h91.203v198.907h-67.351v-53.349h-117.172v53.349h-67.759v-198.907h93.297v-48.812h-130.691v-52.334h327.501v52.334h-129.028z" style="fill:#b5b5b6;fill-opacity:1;fill-rule:nonzero;stroke:none"/><path d="M0 0c43.139 4.202 96.956 26.625 117.134 57.634 20.503-28.001 67.602-50.863 117.489-56.471l2.463-.278 26.277 49.977-5.192.657c-35.149 4.467-76.897 18.124-93.411 43.235h79.786v53.485H-11.132V94.754h80.549c-13-22.256-46.525-38.157-93.343-44.005l-5.222-.659L-2.417-.235Z" style="fill:#b5b5b6;fill-opacity:1;fill-rule:nonzero;stroke:none" transform="translate(2347.259 2377.643)"/><path d="M2300.426 2320.228h327.501v52.715h-327.501z" style="fill:#b5b5b6;fill-opacity:1;fill-rule:nonzero;stroke:none"/><path d="M0 0c0-16.243-19.423-27.585-47.236-27.585-28.688 0-47.226 10.83-47.226 27.585 0 16.005 19.422 27.189 47.226 27.189C-19.869 27.189 0 15.756 0 0m-47.236 81.445c-74.138 0-112.923-40.969-112.923-81.445 0-55.7 58.533-81.07 112.923-81.07C7.148-81.07 65.673-55.7 65.673 0c0 47.958-46.425 81.445-112.909 81.445" style="fill:#b5b5b6;fill-opacity:1;fill-rule:nonzero;stroke:none" transform="translate(2511.409 2233.32)"/><path d="M0 0h-18.379v92.458h-65.259v-214.751c-33.77 17.832-69.137 65.326-70.163 147.013h58.396v53.099h-185.481V24.72h58.827c-.748-72.741-24.116-125.854-69.475-157.911l-3.335-2.352 39.949-44.469 2.526 1.383c23.359 12.832 54.23 45.678 66.353 75.946 13.959-27.123 49.131-60.384 66.966-68.736l2.562-1.201 32.875 40.161v-105.184h65.259v182.996H0v-197.642h65.681V97.083H0Z" style="fill:#b5b5b6;fill-opacity:1;fill-rule:nonzero;stroke:none" transform="translate(2937.45 2439.206)"/><path d="M0 0h-66.52v-145.186c-40.214-5.531-88.096-8.057-154.209-8.138v81.345h110.822v52.715h-177.767v-188.331h3.629c97.642 0 166.972 3.173 217.525 9.977v-71.788H0v130.009h48.404v52.714H0Z" style="fill:#b5b5b6;fill-opacity:1;fill-rule:nonzero;stroke:none" transform="translate(3335.121 2536.674)"/><path d="M0 0h-67.784v-137.084h262.086V-83.6H0Z" style="fill:#b5b5b6;fill-opacity:1;fill-rule:nonzero;stroke:none" transform="translate(3152.164 2311.68)"/><path d="M0 0c42.934 3.832 96.743 26.042 117.162 57.294 20.564-27.798 67.662-50.523 117.481-56.131l2.486-.278 26.209 50.71-5.109.686c-46.681 6.297-81.227 22.847-94.196 44.786h80.533v53.486H-11.109V97.067h81.167C57.641 74.198 24.607 58.254-23.921 51.896l-5.131-.671L-2.428-.218z" style="fill:#b5b5b6;fill-opacity:1;fill-rule:nonzero;stroke:none" transform="translate(3445.634 2378.413)"/><path d="M0 0c0-17.14-20.11-29.118-48.903-29.118C-78.628-29.118-97.83-17.682-97.83 0c0 16.461 20.117 27.955 48.927 27.955C-20.571 27.955 0 16.197 0 0m-212.65 91.916h130.275V76.618c-50.386-9.546-81.539-38.71-81.539-76.618 0-54.904 59.614-79.912 115.011-79.912C30.116-79.912 66.104-38.488 66.104 0c0 38.218-30.826 67.392-80.698 76.633v15.283h129.445v52.72H-212.65Z" style="fill:#b5b5b6;fill-opacity:1;fill-rule:nonzero;stroke:none" transform="translate(3611.481 2232.161)"/><path d="M0 0c0 15.985 14.993 28.992 33.428 28.992 18.425 0 33.419-13.007 33.419-28.992 0-15.981-14.994-28.988-33.419-28.988C14.993-28.988 0-15.981 0 0m163.876 158.897V-83.53c-20.595-3.324-61.744-7.113-95.935-7.997v17.882C105.972-62.052 131.318-32.736 131.318 0c0 23.346-12.621 45.037-34.355 59.955h56.303v50.024H67.171v43.272H-.325v-43.272h-90.296V59.955h60.512C-51.844 45.045-64.465 23.354-64.465 0c0-33.38 26.022-62.868 65.047-74.106V-93.59c-25.484-.256-68.182-.446-93.281.816l-3.809.19v-56.764l3.588-.038c39.225-.424 100.803 1.639 132.605 3.121 45.987 2.155 97.612 7.603 124.191 11.941v-56.151h67.351v349.372z" style="fill:#b5b5b6;fill-opacity:1;fill-rule:nonzero;stroke:none" transform="translate(4193.259 2377.392)"/><path d="M0 0h-67.784v-223.533H0v93.765h47.573v52.72H0Z" style="fill:#b5b5b6;fill-opacity:1;fill-rule:nonzero;stroke:none" transform="translate(4038.394 2537.059)"/><path d="M0 0c0 22.93 17.434 38.952 42.389 38.952 20.971 0 43.26-13.658 43.26-38.952 0-24.78-22.289-38.149-43.26-38.149C17.434-38.149 0-22.459 0 0m152.803-.394c0 53.788-47.467 94.349-110.414 94.349-62.455 0-109.545-40.561-109.545-94.349 0-53.973 46.071-93.151 109.545-93.151 62.947 0 110.414 40.047 110.414 93.151" style="fill:#b5b5b6;fill-opacity:1;fill-rule:nonzero;stroke:none" transform="translate(3796.774 2427.31)"/><path d="M0 0c0-17.322-20.074-28.961-49.939-28.961-31.062 0-50.356 11.102-50.356 28.961 0 17.319 20.239 28.966 50.356 28.966C-20.535 28.966 0 17.056 0 0m-49.939 80.991c-58.647 0-118.019-27.818-118.019-80.991 0-52.396 59.372-79.809 118.019-79.809C8.72-79.809 68.099-52.396 68.099 0c0 47.687-48.541 80.991-118.038 80.991" style="fill:#b5b5b6;fill-opacity:1;fill-rule:nonzero;stroke:none" transform="translate(3973.036 2232.058)"/><path d="M0 0c72.657 43.458 85.902 87.443 88.307 147.876l-384.105.355v133.62c0 .17.139.307.309.307l37.736.012v177.167h-259.448v-674.262h221.4V-28.29h70.29l118.408-186.635h247.541z" style="fill:#e77625;fill-opacity:1;fill-rule:nonzero;stroke:none" transform="translate(3093.764 2936.047)"/><path d="M0 0c.007 0 .015.008-1.82.016V0Z" style="fill:#e57625;fill-opacity:1;fill-rule:nonzero;stroke:none" transform="translate(2886.65 3218.232)"/><path d="M0 0v-167.413h105.672c-21.495-38.517-56.959-49.831-98.407-49.831-68.291 0-120.406 30.57-120.406 163.22 0 132.651 52.115 163.219 120.406 163.219 53.244 0 96.646-18.594 113.191-89.65h214.168C310.351 239.468 172.466 292.841-3.122 292.841c-193.722 0-341.55-64.961-341.55-346.865 0-281.903 147.828-346.867 341.55-346.867 193.719 0 341.547 64.964 341.547 346.867V0Z" style="fill:#e77625;fill-opacity:1;fill-rule:nonzero;stroke:none" transform="translate(4086.06 3112.258)"/><path d="M0 0h-246.436l-147.6-210.671V0h-223.237v-674.24h223.237v219.87l111.833-219.87h260.449l-219.178 359.161z" style="fill:#2c7bbf;fill-opacity:1;fill-rule:nonzero;stroke:none" transform="translate(1957.003 3395.353)"/></g><g clip-path="url(#b)" transform="matrix(.36682 0 0 -.36682 -457.24 1289.478)"><path d="M2874.132 3395.384c-12.437 0-22.52-10.082-22.52-22.519v-132.094c0-12.439 10.083-22.521 22.52-22.521h67.378c24.938 0 45.151-20.214 45.151-45.151v-52.301c0-12.44 10.082-22.52 22.522-22.52h150.904c12.438 0 22.52 10.08 22.52 22.52v92.481c0 100.574-81.531 182.105-182.102 182.105z" style="fill:url(#c);stroke:none"/></g><path d="M0 0v180.704h-405.844V26.09c0-21.602-17.576-39.178-39.178-39.178h-36.495v-480.448H-3.489v180.704h-256.572v74.482H-68.62v170.069h-191.441V0Z" style="fill:#e77625;fill-opacity:1;fill-rule:nonzero;stroke:none" transform="matrix(.36682 0 0 -.36682 914.708 110.293)"/><path d="M0 0h-67.379c-24.936 0-45.153 20.214-45.153 45.151v52.301c0 12.437-10.082 22.52-22.52 22.52h-150.904c-12.44 0-22.523-10.083-22.523-22.52V16.681h13.844c107.938 0 195.994-86.5 198.637-193.815H0c12.438 0 22.52 10.083 22.52 22.52v132.092C22.52-10.085 12.438 0 0 0" style="fill:#2c7bbf;fill-opacity:1;fill-rule:nonzero;stroke:none" transform="matrix(.36682 0 0 -.36682 751.467 44.008)"/><path d="M0 0c-71.074 0-125.392 30.601-125.392 163.245 0 132.642 54.318 163.197 125.392 163.197 71.071 0 125.392-30.555 125.392-163.197C125.392 30.601 71.071 0 0 0m0 510.085c-201.8 0-355.684-64.943-355.684-346.84C-355.684-118.654-201.8-183.689 0-183.689c201.797 0 355.682 65.035 355.682 346.934 0 281.897-153.885 346.84-355.682 346.84" style="fill:#2c7bbf;fill-opacity:1;fill-rule:nonzero;stroke:none" transform="matrix(.36682 0 0 -.36682 350.39 227.866)"/></svg>