<svg xmlns="http://www.w3.org/2000/svg" xml:space="preserve" width="334.46289" height="500" viewBox="0 0 334.46289 500"><path d="M334.13 283.692h.302v2.42h-.301zm-.532 2.102h-.299v-1.682h-.927v-.27h1.226z" style="fill:#5f5e5e;fill-opacity:1;fill-rule:nonzero;stroke:none;stroke-width:1.86916" transform="translate(-14076.224 -11623.614) scale(42.36213)"/><path d="M0 0h.186v-.158H0v-.275h-.16v.664H0Zm-.222-.787c0 .048-.018.09-.054.125a.175.175 0 0 1-.126.052.173.173 0 0 1-.126-.052.172.172 0 0 1-.053-.125c0-.049.018-.091.053-.126a.176.176 0 0 1 .126-.051c.048 0 .09.017.126.051a.17.17 0 0 1 .054.126m.157-.001a.284.284 0 0 0-.027-.123.361.361 0 0 0-.071-.101.356.356 0 0 0-.238-.094.35.35 0 0 0-.239.094.345.345 0 0 0-.072.101.284.284 0 0 0-.027.123c0 .043.009.084.027.122a.345.345 0 0 0 .072.101.35.35 0 0 0 .477 0 .361.361 0 0 0 .071-.101.282.282 0 0 0 .027-.122m-.358.379-.27.393-.268-.404-.129.086.397.581.4-.568z" style="fill:#5f5e5e;fill-opacity:1;fill-rule:nonzero;stroke:none" transform="matrix(79.18155 0 0 -79.18155 202.079 412.425)"/><path d="M0 0v.247h-.227v.138H0V.69h.161V0Zm-.107-.328c0 .048-.018.09-.053.125a.176.176 0 0 1-.128.052.167.167 0 0 1-.124-.052.172.172 0 0 1-.053-.125c0-.049.018-.091.053-.126a.17.17 0 0 1 .124-.051.179.179 0 0 1 .181.177M.051-.33a.282.282 0 0 0-.027-.122.345.345 0 0 0-.179-.17.34.34 0 0 0-.131-.025.343.343 0 0 0-.31.195.282.282 0 0 0-.027.122c0 .044.009.085.027.123a.345.345 0 0 0 .179.17.343.343 0 0 0 .131.025.34.34 0 0 0 .31-.195.284.284 0 0 0 .027-.123M-.983.447v.135h.303v.124h.172V.582h.289V.447h-.315l.326-.331-.104-.099-.282.294-.279-.317-.107.1.328.353z" style="fill:#5f5e5e;fill-opacity:1;fill-rule:nonzero;stroke:none" transform="matrix(79.18155 0 0 -79.18155 313.282 448.761)"/><path d="M0 0a2.112 2.112 0 1 0-4.223.001A2.112 2.112 0 0 0 0 0" style="fill:#fff;fill-opacity:1;fill-rule:nonzero;stroke:none" transform="matrix(79.18155 0 0 -79.18155 334.463 167.232)"/><path d="M0 0a.698.698 0 0 1-.992-.208.701.701 0 0 0-.583-.322.701.701 0 0 0-.678.514.049.049 0 0 1-.003.007.882.882 0 0 0-.037.286c0 .626.641 1.322 1.565 1.322C.218 1.598.76.878.899.478L.892.499a1.992 1.992 0 0 1-3.877-.646c-.001-.983.709-1.825 1.693-1.826.785 0 1.312.44 1.554 1.047A.768.768 0 0 1 0 0" style="fill:#0c426e;fill-opacity:1;fill-rule:nonzero;stroke:none" transform="matrix(79.18155 0 0 -79.18155 245.89 155.528)"/><path d="M0 0c-.116.391-.662 1.16-1.64 1.16-.923 0-1.565-.696-1.565-1.321 0-.116.007-.169.036-.277a.576.576 0 0 0-.018.142c0 .651.652 1.102 1.322 1.102A1.643 1.643 0 0 0-.223-.837c0-.711-.409-1.327-1.004-1.623A1.994 1.994 0 0 1 0 0" style="fill:#e6223a;fill-opacity:1;fill-rule:nonzero;stroke:none" transform="matrix(79.18155 0 0 -79.18155 318.072 120.783)"/></svg>