<svg xmlns="http://www.w3.org/2000/svg" xml:space="preserve" width="381.07599" height="473.81067" viewBox="0 0 381.07599 473.81067"><defs><clipPath id="a" clipPathUnits="userSpaceOnUse"><path d="M0 0h285.807v355.358H0Z"/></clipPath></defs><g clip-path="url(#a)" transform="matrix(1.33333 0 0 -1.33333 0 473.81)"><path d="M0 0v223.687h-285.807V-.107l.452-6.77c2.259-14.061 12.78-52.053 62.186-81.062 0 0 6.111-4.727 50.115-24.399 0 0 10.298-3.308 29.771-19.355 17.839 15.365 22.696 17.086 29.611 20.515 18.195 8.963 51.037 23.239 51.037 23.239C-11.767-62.246-2.714-20.938-.466-6.877z" style="fill:#264a90;fill-opacity:1;fill-rule:nonzero;stroke:none" transform="translate(285.807 131.67)"/><path d="M0 0v-323.647c10.183 8.164 15.644 11.166 21.973 14.24l1.677.828c17.371 8.551 47.005 21.5 51.171 23.311 38.551 19.568 50.889 48.891 54.405 70.25.072 1.094.344 4.945.391 5.666V0Z" style="fill:#264a90;fill-opacity:1;fill-rule:nonzero;stroke:none" transform="translate(142.329 341.496)"/><path d="M0 0v-209.467c.049-.713.296-4.445.369-5.551 2.229-13.166 12.049-45.318 55.43-70.795l.601-.353s.209-.152.407-.303c.525-.34 8.617-5.531 47.294-22.834 3.008-1.113 11.213-4.718 24.292-14.404a.37.37 0 0 1 .076.061V0Z" style="fill:#d22027;fill-opacity:1;fill-rule:nonzero;stroke:none" transform="translate(13.765 342.437)"/><path d="M0 0v-209.47c.05-.707.297-4.445.375-5.551 2.224-13.164 12.044-45.318 55.425-70.791l.608-.357s.2-.15.405-.297c.519-.346 8.613-5.531 47.288-22.84 3.008-1.113 11.215-4.715 24.293-14.404 10.236 8.215 15.701 11.217 22.049 14.309l1.678.82c17.368 8.557 47.004 21.5 51.167 23.31 38.561 19.569 50.892 48.891 54.407 70.25.075 1.1.344 4.954.393 5.667V0z" style="fill:none;stroke:#fff;stroke-width:3.5;stroke-linecap:butt;stroke-linejoin:miter;stroke-miterlimit:4;stroke-dasharray:none;stroke-opacity:1" transform="translate(13.84 341.178)"/><path d="M0 0c4.226-.166 8.371-2.654 8.66-8.252.744-8.477-11.133-16.133-11.133-16.133-13.503-9.461-21.444-21.381-21.444-21.381s-26.871-39.205 8.249-71.929c0 0 19.503-18.737 53.317-10.282 0 0 41.398 10.11 36.672 59.541 0 0-3.076 25.627-26.73 31.873 0 0-28.696 8.069-38.526-17.396 0 0-4.386-10.49-.439-18.217 2.7-8.103 10.669-13.609 19.562-12.832 10.115.885 17.653 9.594 17.206 19.645 2.326-1.739 5.507-5.711 3.699-13.92 0 0-3.615-18.711-25.614-19.406-27.905-.874-29.025 26.068-29.025 26.068C-8.107-46.838 15.35-29.818 15.35-29.818 34.832-16.1 34.775-1.508 34.775-1.508s1.44 18.131-19.508 18.867c0 0 31.429 4.112 29.056 26.928 0 0-2.797-8.916-19.76-11.014 0 0-21.577-2.209-18.329-18.162 0 0-14.929-4.326-20.307-19.295C-14.073-4.184-6.506.441 0 0" style="fill:#fff;fill-opacity:1;fill-rule:nonzero;stroke:none" transform="translate(79.65 193.96)"/><path d="M0 0c-1.338 6.006-5.07 28.488-5.07 28.488-3.375 24.918 3.578 42.623 3.578 42.623 6 16.084 18.639 29.641 18.639 29.641 6.18 7.008 20.525 18.279 20.525 18.279 29.154 25.36 6.765 57.439 6.765 57.439 35.993-32.992 14.402-67.601 14.402-67.601-6.269-12.553-16.557-21.072-16.557-21.072-24.594-22.572-19.28-54.574-19.28-54.574l4.31-45.032z" style="fill:#fff;fill-opacity:1;fill-rule:nonzero;stroke:none" transform="translate(126.785 136.023)"/><path d="M0 0c59.625 6.375 48.825 58.031 48.825 58.031-1.758 16.231-4.308 49.658-4.308 49.658-1.438 24.915 23.077 32.532 23.077 32.532 5.173 2.093 8.968 2.562 15.4 3.924 7.671 2.228 11.259 3.959 11.259 3.959 33.22 15.791 32.595 51.957 32.595 51.957-10.53-29.219-57.185-35.59-57.185-35.59-53.254-11.354-47.517-59.348-47.517-59.348l4.166-47.596S32.438 21 0 0" style="fill:#fff;fill-opacity:1;fill-rule:nonzero;stroke:none" transform="translate(135.537 67.315)"/><path d="M0 0c3.596-43.242-42.506-50.441-42.506-50.441C-16.49-34.453-20.704-1.164-20.704-1.164l-4.362 50.898s-4.309 24.829 29.462 30.051c0 0 30.377 5.934 38.415 26.641 0 0 1.308-34.797-27.209-41.338 0 0-20.998-5.525-19.266-23.08z" style="fill:#fff;fill-opacity:1;fill-rule:nonzero;stroke:none" transform="translate(213.431 123.349)"/></g></svg>