<svg xmlns="http://www.w3.org/2000/svg" xml:space="preserve" width="1000px" height="265px" x="0px" y="0px" viewBox="0 0 1000 265"><path fill="#005BAC" d="M549.005 33.622c-6.831 0-9.66 2.428-11.055 8.747l-16.368 101.11h36.74l17.805-109.857h-27.122zM129.577 30.553H97.801c-4.879 0-7.633 1.57-10.928 4.594L50.568 70.503l8.761-39.951H30.553c-6.855 0-9.685 2.458-11.059 8.807h-.005L0 143.479h36.134l9.915-49.012 33.647 49.012h44.986L79.901 79.722l49.676-49.169zM621.253 117.757l14.484-84.135h-27.153c-6.71 0-9.568 2.353-10.982 8.385l-16.409 101.472h86.621l3.32-25.722h-49.881z"/><radialGradient id="a" cx="194.4131" cy="63.4458" r="98.4757" gradientUnits="userSpaceOnUse"><stop offset="0" style="stop-color:#00aedc"/><stop offset="0.2" style="stop-color:#00aedc"/><stop offset="1" style="stop-color:#0066b2"/></radialGradient><path fill="url(#a)" d="m426.453 143.494 36.621-74.555.19-2.478 14.374 77.053h37.573l-23.08-109.893h-34.685c-5.457 0-7.733 1.555-10.141 5.417L402.1 128.569l-32.268-29.157c14.594-4.073 30.833-15.287 35.377-34.114 8.109-33.371-20.11-34.745-29.459-34.745h-51.786c-6.69 0-7.884 1.435-9.289 7.523l-9.97 46.812c-25.39-16.51-83.009-50.052-123.557-50.613-10.216-.13-17.663 1.424-24.886 5.858-1.083.682-1.354.622-1.509.582l.562-1.184c4.358-5.336 13.29-13.902 28.266-18.556 0 0 23.957-8.385 56.074 11.134 18.677 11.325 31.24 20.883 43.451 30.974-9.247-38.391-45.111-65.789-86.065-62.298-37.156 3.189-66.36 30.623-73.286 65.313C143.55 48.369 181.534 42.08 239.7 61.951c13.056 4.463 25.086 9.288 36.09 14.268 10.051 4.473 20.219 9.794 30.861 15.923 21.905 12.618 46.38 30.171 66.18 51.355h53.622v-.003m-84.676-56.731c1.123-5.486 7.191-34.855 8.004-38.767h13.441s13.42-.792 8.636 17.302c0 0-5.326 21.465-30.081 21.465z"/><radialGradient id="b" cx="433.6919" cy="963.7422" r="18.0336" gradientTransform="translate(-2180.934 -5215.263) scale(5.4769)" gradientUnits="userSpaceOnUse"><stop offset="0" style="stop-color:#00aedc"/><stop offset="0.2" style="stop-color:#00aedc"/><stop offset="1" style="stop-color:#0066b2"/></radialGradient><path fill="url(#b)" d="M336.13 114.888c-2.898 12.648-5.988 28.59-5.988 28.59h-37.907l8.629-40.577c-8.468-2.758-14.37-4.433-17.095-5.115-6.93 34.595-35.587 62.267-72.675 65.448-24.067 2.056-46.561-6.38-62.931-21.605l-.07-.081s-15.768-14.338-14.549-35.035c1.224-21.294 19.971-29.92 19.971-29.92 21.771-11.726 69.997-12.959 138.188 16.249 0-.001 22.922 8.996 44.427 22.046z"/><g fill="#515457"><path d="M906.768 247.904H1000v12.212h-93.232zM953.389 208.65c7.513 9.931 21.665 19.46 40.223 19.46v-12.724c-20.434-.602-32.98-15.03-32.98-25.452v-13.069h-14.484v13.069c0 10.422-12.537 24.851-32.979 25.452v12.724c18.544 0 32.697-9.529 40.22-19.46zM652.187 192.401h-19.75v12.66h19.75v59.456h13.681v-88.103h-13.681zM877.921 213.085h-11.015v10.702h11.015v9.403h13.681v-56.366h-13.681zM672.197 176.414h13.672v88.103h-13.672z"/><path d="M612.828 176.414h-13.602v50.869c0 6.273 4.394 11.374 9.8 11.374h36.019v-11.74h-32.217v-50.503zM828.621 233.035h13.681v-9.248h19.479v-10.702h-8.285c4.214-4.152 6.812-9.759 6.812-15.934 0-12.839-11.134-23.245-24.865-23.245-13.732 0-24.866 10.406-24.866 23.245 0 6.175 2.598 11.781 6.811 15.934H805.06v10.702h23.562v9.248zm-4.644-35.777c0-6.776 5.136-12.237 11.466-12.237 6.318 0 11.464 5.461 11.464 12.237 0 6.744-5.146 12.211-11.464 12.211-6.331 0-11.466-5.467-11.466-12.211zM463.667 176.784h13.62v87.707h-13.62zM519.375 216.305c12.738 0 23.079-7.784 23.079-21.175 0-13.381-10.341-21.164-23.079-21.164-12.748 0-23.08 7.783-23.08 21.164 0 13.391 10.332 21.175 23.08 21.175zm-.01-31.295c5.657 0 10.261 4.529 10.261 10.12 0 5.577-4.604 10.111-10.261 10.111-5.658 0-10.252-4.534-10.252-10.111 0-5.591 4.594-10.12 10.252-10.12zM564.682 176.403h13.622v39.038h-13.622zM444.106 208.49h-9.338V188.255c0-6.284-4.373-11.37-9.759-11.38v-.01h-29.911v12.218h26.049v19.407h-26.049v39.495c0 6.294 4.383 11.395 9.79 11.395.06 0 .1-.01.171-.01h30.09v-12.212H408.71v-26.465h35.396v43.798h13.642v-87.707h-13.642v31.706zM373.885 189.002c0-.11.01-.21.01-.325 0-6.284-4.384-11.391-9.81-11.391h-68.989v12.217h65.157v18.365h-65.157v12.213h65.157v27.607h-23.882v-20.451h-14.374v20.451h-29.723v12.479h85.652v-12.479h-4.042v-58.686zM513.607 247.018h64.696v-19.7c0-4.483-2.829-7.236-7.283-7.236h-71.014v11.725h64.665v4.379h-64.665v17.173c0 6.739 4.794 10.762 10.742 10.762h68.446v-12.227h-65.588v-4.876zM884.329 236.341H811.98v10.687h65.94v17.102h13.681v-20.571c.001-4.445-2.818-7.218-7.272-7.218zM702.509 247.904h88.218v12.212h-88.218zM718.026 232.013h66.872v-12.229h-63.062v-9.156h62.349V198.4h-62.349v-7.884h63.062v-12.228h-66.872c-5.406 0-9.8 5.11-9.8 11.395v30.949c.001 6.285 4.394 11.381 9.8 11.381z"/></g></svg>