<svg xmlns="http://www.w3.org/2000/svg" width="211.06769mm" height="211.06308mm" viewBox="0 0 211.06769 211.06308"><path d="M140.495 141.124a70.2 70.2 0 0 1-38.903-11.698 32.9 32.9 0 0 1 1.909 11.063c0 18.189-14.742 32.938-32.93 32.938a32.94 32.94 0 0 1-32.935-32.938 32.927 32.927 0 0 1 43.993-31.018l27.844-27.848a70.27 70.27 0 0 0-38.903-11.7C31.592 69.922 0 101.516 0 140.488c0 38.975 31.592 70.574 70.57 70.574 38.765 0 70.215-31.265 70.553-69.946z" style="fill:#ff6640;fill-opacity:1;fill-rule:nonzero;stroke:none;stroke-width:3.6283"/><path d="M70.569 69.921a70.3 70.3 0 0 1 38.906 11.701 32.9 32.9 0 0 1-1.912-11.062c0-18.185 14.746-32.924 32.934-32.924 18.185 0 32.93 14.739 32.93 32.924a32.934 32.934 0 0 1-43.985 31.025l-27.847 27.84a70.15 70.15 0 0 0 38.899 11.698c38.982 0 70.574-31.592 70.574-70.563 0-38.976-31.592-70.56-70.574-70.56-38.758 0-70.208 31.254-70.542 69.935.2 0 .407-.014.617-.014" style="fill:#91c3e1;fill-opacity:1;fill-rule:nonzero;stroke:none;stroke-width:3.6283"/></svg>