<svg xmlns="http://www.w3.org/2000/svg" width="663.61383mm" height="299.99994mm" viewBox="0 0 663.61383 299.99994"><defs><linearGradient id="a" x1="0" x2="1" y1="0" y2="0" gradientTransform="translate(-171.073 91.643) scale(455.93931)" gradientUnits="userSpaceOnUse" spreadMethod="pad"><stop offset="0" style="stop-opacity:1;stop-color:#4dc6f4"/><stop offset="0.4" style="stop-opacity:1;stop-color:#4dc6f4"/><stop offset="1" style="stop-opacity:1;stop-color:#5495d6"/></linearGradient><linearGradient id="b" x1="0" x2="1" y1="0" y2="0" gradientTransform="translate(-171.073 33.597) scale(513.26025)" gradientUnits="userSpaceOnUse" spreadMethod="pad"><stop offset="0" style="stop-opacity:1;stop-color:#f25c19"/><stop offset="1" style="stop-opacity:1;stop-color:#fbc707"/></linearGradient></defs><path d="M0 0h4.567v-9.509h.071L12.378 0h4.813L8.576-9.86l9.522-12.015h-5.581L4.638-11.287h-.071v-10.588H0Z" style="fill:#155195;fill-opacity:1;fill-rule:nonzero;stroke:none" transform="matrix(5.71148 0 0 -5.71148 0 173.049)"/><path d="m0 0-2.492-11.088L-6.251 0h-2.051l-3.425-11.281L-14.554 0h-3.669c.079-.277 4.147-14.826 4.192-14.987h3.454l3.174 9.578 3.524-9.578H-.39C-.348-14.82 3.216-.27 3.283 0Z" style="fill:#155195;fill-opacity:1;fill-rule:nonzero;stroke:none" transform="matrix(5.71148 0 0 -5.71148 254.396 212.393)"/><path d="M0 0c-1.264 0-2.047.864-2.047 2.253 0 1.785 1.75 2.843 5.199 3.147l.121.009V4.17C3.273 2.099 2.149 0 0 0m3.273.715V-1.63h4.03V8.548c0 2.681-.753 5.16-6.214 5.16-4.333 0-6.647-1.613-6.703-4.664h4.312l.008.131c.06 1.056.187 3.256 2.346 3.256 1.558 0 2.221-.922 2.221-3.084V6.683l-.105-.004C.846 6.587-6.215 6.308-6.215 1.71c0-2.105 1.961-3.691 4.562-3.691 3.366 0 4.926 2.696 4.926 2.696" style="fill:#155195;fill-opacity:1;fill-rule:nonzero;stroke:none" transform="matrix(5.71148 0 0 -5.71148 321.541 288.68)"/><path d="M0 0c.943 0 1.874.088 2.86.182l.017.001v1.991c-.598-.163-1.261-.193-1.787-.193-1.711 0-2.291.657-2.291 2.606v9.122h4.71v1.629h-4.71v5.836l-4.029-2.211v-3.625h-3.128v-1.629h3.128V4.107C-5.23.686-3.229 0 0 0" style="fill:#155195;fill-opacity:1;fill-rule:nonzero;stroke:none" transform="matrix(5.71148 0 0 -5.71148 425.324 299.998)"/><path d="M0 0c.145.989.749 3.29 3.167 3.29 2.842 0 2.925-2.969 2.925-3.308v-.111H-.02Zm4.363-11.122c2.393 0 3.426.297 5.3 1.022v1.366c-.89-.304-2.019-.629-3.155-.629-4.919 0-6.51 5.22-6.51 7.749v.111H9.98v.463c0 3.616-2.37 5.608-6.671 5.608-4.871 0-7.34-2.403-7.34-7.142 0-7.714 5.87-8.548 8.394-8.548" style="fill:#155195;fill-opacity:1;fill-rule:nonzero;stroke:none" transform="matrix(5.71148 0 0 -5.71148 474.686 236.477)"/><path d="M0 0v3.756c-2.943-.227-4.393-2.11-5.581-4.136l-.146-.237v4.038h-4.031v-14.987h4.031v6.695C-5.727-1.397-4.118-.025 0 0" style="fill:#155195;fill-opacity:1;fill-rule:nonzero;stroke:none" transform="matrix(5.71148 0 0 -5.71148 606.161 231.931)"/><path d="M-171.071 146.854v1.268c66.087-40.94 143.957-64.608 227.26-64.608 83.9 0 162.28 24.017 228.675 65.505V92.001C217.537 55.568 140.592 34.727 58.907 34.27-27.988 51.119-106.83 90.808-171.071 146.854" style="fill:url(#a);stroke:none;stroke-width:5.71148" transform="translate(321.423 24.056)"/><path d="M-171.073 91.248v55.607c64.249-56.047 143.084-95.736 229.979-112.59-.897-.006-1.805-.046-2.719-.046-82.125 0-159.504 20.664-227.26 57.029" style="fill:#155195;fill-opacity:1;fill-rule:nonzero;stroke:none;stroke-width:5.71148" transform="translate(321.423 24.056)"/><path d="M-171.071 83.177v8.07c67.755-36.365 145.134-57.029 227.26-57.029.913 0 1.821.046 2.718.052a493.522 493.522 0 0 1 94.114-9.036c66.99 0 130.872 13.433 189.17 37.719V9.944c-58.937-21.983-122.672-34-189.17-34-118.37 0-230.933 37.644-324.092 107.233" style="fill:url(#b);stroke:none;stroke-width:5.71148" transform="translate(321.423 24.056)"/></svg>