<svg xmlns="http://www.w3.org/2000/svg" xml:space="preserve" width="890.47369" height="500" viewBox="0 0 890.47366 500"><path d="M525.993 161.245H479.8v119.821h46.194z" style="fill:#127bca;fill-opacity:1;fill-rule:nonzero;stroke:none;stroke-width:3.45455" transform="matrix(1.33333 0 0 -1.33333 -282.176 587.948)"/><path d="M0 0v-38.68h-13.504V0h-10.487v13.108h34.482V0Z" style="fill:#127bca;fill-opacity:1;fill-rule:nonzero;stroke:none" transform="matrix(4.60607 0 0 -4.60607 695.863 194.795)"/><path d="M832.025 161.245h-46.201v119.821h46.201z" style="fill:#127bca;fill-opacity:1;fill-rule:nonzero;stroke:none;stroke-width:3.45455" transform="matrix(1.33333 0 0 -1.33333 -282.176 587.948)"/><path d="M0 0c0-4.681-3.796-8.471-8.476-8.471A8.469 8.469 0 0 0-16.946 0a8.471 8.471 0 0 0 8.47 8.471C-3.796 8.471 0 4.677 0 0" style="fill:#127bca;fill-opacity:1;fill-rule:nonzero;stroke:none" transform="matrix(4.60607 0 0 -4.60607 427.148 163.855)"/><path d="M0 0c26.696 10.679 51.87 24.899 51.87 35.52 0 5.359-3.494 8.526-12.477 9.631-5.81.715-12.444.112-11.268 5.356 1.14 5.101 14.165 9.856 20.75 10.703v10.521c-17.543-6.011-33.277-13.805-33.277-25.16 0-5.449 3.256-11.137 12.469-11.962 8.868-.793 10.731-3.232 10.731-6.608C38.798 21.357 22.189 10.679 0 0" style="fill:#db1f26;fill-opacity:1;fill-rule:nonzero;stroke:none" transform="matrix(4.60607 0 0 -4.60607 360.234 416.358)"/><path d="M0 0a8.47 8.47 0 0 0-8.474-8.471A8.469 8.469 0 0 0-16.943 0a8.471 8.471 0 0 0 8.469 8.471A8.473 8.473 0 0 0 0 0" style="fill:#127bca;fill-opacity:1;fill-rule:nonzero;stroke:none" transform="matrix(4.60607 0 0 -4.60607 834.846 163.855)"/><path d="M0 0c-5.404 9.83 19.258 31.814 19.258 31.814C-4.098 14.759-13.03 1.432-9.229-4.993c4.414-7.461 30.793-6.381 70.661 11.064C29.394-6.391 3.972-7.225 0 0" style="fill:#127bca;fill-opacity:1;fill-rule:nonzero;stroke:none" transform="matrix(4.60607 0 0 -4.60607 46.404 456.837)"/><path d="M0 0c-7.096 11.618-45.848 4.147-98.29-22.991C-53.968-2.846-14.616 5.527-7.082-4.938c2.478-3.443 1.568-10.204-4.239-18.68C-6.298-18.752 3.592-5.88 0 0" style="fill:#127bca;fill-opacity:1;fill-rule:nonzero;stroke:none" transform="matrix(4.60607 0 0 -4.60607 886.934 24.353)"/><path d="M0 0v51.788h13.375V28.76L24.61 51.788h15.489L27.514 28.194 40.382 0H25.494L13.375 27.594V0Z" style="fill:#127bca;fill-opacity:1;fill-rule:nonzero;stroke:none" transform="matrix(4.60607 0 0 -4.60607 152.336 372.956)"/><path d="M0 0h2.167l.991-6h.03l1.053 6h2.357l1.116-6h.033l1.018 6h2.075L9.018-8.452H6.553L5.437-2.451h-.032L4.352-8.452H1.838Z" style="fill:#231f20;fill-opacity:1;fill-rule:nonzero;stroke:none" transform="matrix(4.60607 0 0 -4.60607 392.056 423.245)"/><path d="M0 0h2.169l.987-6h.032l1.054 6h2.356l1.114-6h.032l1.024 6h2.073L9.019-8.452H6.551L5.437-2.451h-.033L4.352-8.452H1.838Z" style="fill:#231f20;fill-opacity:1;fill-rule:nonzero;stroke:none" transform="matrix(4.60607 0 0 -4.60607 443.002 423.245)"/><path d="M0 0h2.167l.993-6h.03l1.053 6h2.356l1.115-6h.033l1.02 6h2.073L9.018-8.452H6.552L5.437-2.451h-.033L4.353-8.452H1.838Z" style="fill:#231f20;fill-opacity:1;fill-rule:nonzero;stroke:none" transform="matrix(4.60607 0 0 -4.60607 493.945 423.245)"/><path d="M628.013 94.33h-7.158v8.471h7.158z" style="fill:#231f20;fill-opacity:1;fill-rule:nonzero;stroke:none;stroke-width:3.45455" transform="matrix(1.33333 0 0 -1.33333 -282.176 587.948)"/><path d="M0 0v-5.922h.031l2.184 3.156h2.388L2.168-6.097l2.798-5.121h-2.39L.769-7.744 0-8.751v-2.467h-2.167V0Z" style="fill:#231f20;fill-opacity:1;fill-rule:nonzero;stroke:none" transform="matrix(4.60607 0 0 -4.60607 572.763 410.504)"/><path d="M660.86 133.512h7.482v-6.405h-7.483zm0-9.984h7.482V94.331h-7.483z" style="fill:#231f20;fill-opacity:1;fill-rule:nonzero;stroke:none;stroke-width:3.45455" transform="matrix(1.33333 0 0 -1.33333 -282.176 587.948)"/><path d="M0 0v-.283c0-.737.393-1.224 1.131-1.224.66 0 1.098.329 1.098 1.005 0 .551-.36.802-.784.958l-1.523.55c-1.194.426-1.806 1.162-1.806 2.356 0 1.399.877 2.546 3.109 2.546 1.964 0 2.891-.881 2.891-2.403v-.346H2.168c0 .847-.252 1.273-.957 1.273-.552 0-1.023-.317-1.023-.912 0-.408.22-.754.943-.988l1.306-.442C3.802 1.634 4.303.944 4.303-.329c0-1.776-1.319-2.654-3.142-2.654-2.433 0-3.11 1.066-3.11 2.686V0Z" style="fill:#231f20;fill-opacity:1;fill-rule:nonzero;stroke:none" transform="matrix(4.60607 0 0 -4.60607 623.275 449.444)"/><path d="M0 0h2.169v-2.42h1.255v-1.478H2.169v-4.571c0-.658.138-.926.769-.926.173 0 .346.014.486.031v-1.508c-.471-.048-.911-.093-1.416-.093C.313-10.965 0-10.447 0-8.737v4.839h-1.102v1.478H0Z" style="fill:#231f20;fill-opacity:1;fill-rule:nonzero;stroke:none" transform="matrix(4.60607 0 0 -4.60607 650.268 412.099)"/><path d="M714.035 133.512h7.493v-6.405h-7.493Zm0-9.984h7.493V94.331h-7.493ZM734.393 94.33h-7.162v8.471h7.162z" style="fill:#231f20;fill-opacity:1;fill-rule:nonzero;stroke:none;stroke-width:3.45455" transform="matrix(1.33333 0 0 -1.33333 -282.176 587.948)"/><path d="M0 0h2.074v-1.132h.03C2.545-.314 3.158.22 4.054.22c.124 0 .265-.015.392-.032v-2.073c-.22.015-.455.031-.676.031-.754 0-1.603-.394-1.603-1.524v-5.074H0Z" style="fill:#231f20;fill-opacity:1;fill-rule:nonzero;stroke:none" transform="matrix(4.60607 0 0 -4.60607 704.252 423.245)"/><path d="M0 0v.487c0 2.591-.565 4.289-3.093 4.289-2.923 0-3.364-2.105-3.364-4.369 0-2.103.125-4.522 3.269-4.522 2.042 0 2.985 1.098 3.063 3.061h-1.949c-.124-1.034-.421-1.585-1.148-1.585-.799 0-1.066.973-1.066 1.963V0Zm-4.288 1.288v.329c0 .788.25 1.683 1.116 1.683.896 0 1.052-.722 1.098-2.012z" style="fill:#231f20;fill-opacity:1;fill-rule:nonzero;stroke:none" transform="matrix(4.60607 0 0 -4.60607 756.637 444.231)"/><path d="M790.619 94.33h-7.165v8.471h7.165z" style="fill:#231f20;fill-opacity:1;fill-rule:nonzero;stroke:none;stroke-width:3.45455" transform="matrix(1.33333 0 0 -1.33333 -282.176 587.948)"/><path d="M0 0v-5.922h.032l2.182 3.156h2.39L2.169-6.097l2.796-5.121H2.577L.77-7.744 0-8.751v-2.467h-2.168V0Z" style="fill:#231f20;fill-opacity:1;fill-rule:nonzero;stroke:none" transform="matrix(4.60607 0 0 -4.60607 789.568 410.504)"/><path d="M0 0h2.076v-1.132h.03C2.547-.314 3.159.22 4.057.22c.123 0 .264-.015.389-.032v-2.073c-.217.015-.454.031-.674.031-.754 0-1.603-.394-1.603-1.524v-5.074H0Z" style="fill:#231f20;fill-opacity:1;fill-rule:nonzero;stroke:none" transform="matrix(4.60607 0 0 -4.60607 815.396 423.245)"/></svg>