<svg width="690" height="184" viewBox="0 0 690 184" fill="none" xmlns="http://www.w3.org/2000/svg">
<path d="M340.319 132.566H321.709V183.502H340.319V132.566Z" fill="#2B57A6"/>
<path d="M261.813 116.917H238.905L213.323 148.46V116.516H195V183.5H213.323V150.581L237.759 183.5H260.648L234.282 149.912L261.813 116.917Z" fill="#2B57A6"/>
<path d="M260.628 183.501L277.079 116.593H287.128L312.463 28.3244L328.55 2.93293C328.55 2.93293 332.982 -3.92601 337.396 3.33414C341.809 10.5943 351.056 28.3244 351.056 28.3244L377.193 116.593H386.44L400.942 183.482H381.645L365.94 117.433H357.094L336.593 28.3244L332.18 21.4654L328.168 28.3244L307.667 117.338H297.216L279.964 183.501H260.667H260.628Z" fill="#2B57A6"/>
<path d="M452.718 157.783C465.213 156.809 471.251 145.479 471.059 137.875C470.792 127.768 461.889 117.967 450.368 117.012H400.884V183.499H419.722V147.485L450.062 183.366H476.161L452.699 157.783H452.718ZM446.833 146.473H419.913V132.105H446.833C450.807 132.105 454.017 135.315 454.017 139.289C454.017 143.263 450.807 146.473 446.833 146.473Z" fill="#2B57A6"/>
<path d="M495 117.109H476.162V183.349H495V117.109Z" fill="#2B57A6"/>
</svg>
